<svg width="48" height="48" viewBox="0 0 48 48" fill="none" xmlns="http://www.w3.org/2000/svg">
  <path d="M16 18C18.2091 18 20 16.2091 20 14C20 11.7909 18.2091 10 16 10C13.7909 10 12 11.7909 12 14C12 16.2091 13.7909 18 16 18Z"
        stroke="#D4A017" stroke-width="2.5" stroke-linecap="round" stroke-linejoin="round"/>
  <path d="M32 18C34.2091 18 36 16.2091 36 14C36 11.7909 34.2091 10 32 10C29.7909 10 28 11.7909 28 14C28 16.2091 29.7909 18 32 18Z"
        stroke="#D4A017" stroke-width="2.5" stroke-linecap="round" stroke-linejoin="round"/>
  <path d="M24 28C26.2091 28 28 26.2091 28 24C28 21.7909 26.2091 20 24 20C21.7909 20 20 21.7909 20 24C20 26.2091 21.7909 28 24 28Z"
        stroke="#D4A017" stroke-width="2.5" stroke-linecap="round" stroke-linejoin="round"/>
  <path d="M16 18V22M32 18V22M20 24H16C13.7909 24 12 25.7909 12 28V32"
        stroke="#D4A017" stroke-width="2.5" stroke-linecap="round" stroke-linejoin="round"/>
  <path d="M28 24H32C34.2091 24 36 25.7909 36 28V32"
        stroke="#D4A017" stroke-width="2.5" stroke-linecap="round" stroke-linejoin="round"/>
  <path d="M24 28V38"
        stroke="#D4A017" stroke-width="2.5" stroke-linecap="round"/>
</svg>